<svg xmlns="http://www.w3.org/2000/svg" xmlns:xlink="http://www.w3.org/1999/xlink" viewBox="0 0 66 34" fill="#fff" fill-rule="evenodd" stroke="#000" stroke-linecap="round" stroke-linejoin="round"><use xlink:href="#A" x=".5" y=".5"/><symbol id="A" overflow="visible"><path d="M45.623 0C32.247.2 24.638 8.08 20.65 15.726c-3.497 6.676-4.234 12.43-4.418 14.002L0 29.89v2.638l17.336-.16a1.32 1.32 0 0 0 1.289-1.209c.057-.674.675-7.1 4.356-14.2 3.436-6.64 9.45-13.094 20.3-14.106-6.688 13.34.675 28.802.675 28.802a1.32 1.32 0 0 0 1.166.761L64 32.563v-2.638l-17.948-.16c-.86-2.013-6.565-16.315.675-27.74A1.32 1.32 0 0 0 46.77.688 1.32 1.32 0 0 0 45.623 0z" stroke="none" fill="#000" fill-rule="nonzero"/></symbol></svg>